<svg xmlns="http://www.w3.org/2000/svg" width="900" height="650" viewBox="0 0 900 650">
  <rect width="900" height="650" fill="#f2e9d7"/>
  <circle cx="477" cy="145" r="77" fill="#e8b86d"/>
  <path d="M0 357 Q180 247 340 377 T900 322 V650 H0Z" fill="#391f1d" opacity=".13"/>
  <rect x="77" y="191" width="45" height="369" rx="4" fill="#e8b86d" opacity=".72"/><rect x="155" y="334" width="62" height="226" rx="4" fill="#391f1d" opacity=".86"/><rect x="267" y="227" width="79" height="333" rx="4" fill="#e8b86d" opacity=".72"/><rect x="345" y="370" width="45" height="190" rx="4" fill="#391f1d" opacity=".86"/><rect x="457" y="263" width="62" height="297" rx="4" fill="#e8b86d" opacity=".72"/><rect x="535" y="406" width="79" height="154" rx="4" fill="#391f1d" opacity=".86"/><rect x="647" y="299" width="45" height="261" rx="4" fill="#e8b86d" opacity=".72"/><rect x="725" y="192" width="62" height="368" rx="4" fill="#391f1d" opacity=".86"/><rect x="837" y="335" width="79" height="225" rx="4" fill="#e8b86d" opacity=".72"/>
  <path d="M0 548 Q190 470 390 550 T900 515 V650 H0Z" fill="#391f1d"/>
  <path d="M0 575 Q220 510 420 590 T900 548" fill="none" stroke="#e8b86d" stroke-width="12"/>
  <text x="52" y="72" fill="#391f1d" font-family="Arial, sans-serif" font-size="18" font-weight="800" letter-spacing="4">DOGPATCH</text>
  <text x="52" y="615" fill="#f2e9d7" font-family="Georgia, serif" font-size="26">Warm Water Cove</text>
</svg>