<svg xmlns="http://www.w3.org/2000/svg" width="900" height="650" viewBox="0 0 900 650">
  <rect width="900" height="650" fill="#fff7e8"/>
  <circle cx="475" cy="145" r="75" fill="#75bba7"/>
  <path d="M0 355 Q180 245 340 375 T900 320 V650 H0Z" fill="#15251b" opacity=".13"/>
  <rect x="71" y="205" width="45" height="355" rx="4" fill="#75bba7" opacity=".72"/><rect x="181" y="350" width="62" height="210" rx="4" fill="#15251b" opacity=".86"/><rect x="257" y="245" width="79" height="315" rx="4" fill="#75bba7" opacity=".72"/><rect x="367" y="390" width="45" height="170" rx="4" fill="#15251b" opacity=".86"/><rect x="443" y="285" width="62" height="275" rx="4" fill="#75bba7" opacity=".72"/><rect x="553" y="430" width="79" height="130" rx="4" fill="#15251b" opacity=".86"/><rect x="663" y="325" width="45" height="235" rx="4" fill="#75bba7" opacity=".72"/><rect x="739" y="220" width="62" height="340" rx="4" fill="#15251b" opacity=".86"/><rect x="849" y="365" width="79" height="195" rx="4" fill="#75bba7" opacity=".72"/>
  <path d="M0 548 Q190 470 390 550 T900 515 V650 H0Z" fill="#15251b"/>
  <path d="M0 575 Q220 510 420 590 T900 548" fill="none" stroke="#75bba7" stroke-width="12"/>
  <text x="52" y="72" fill="#15251b" font-family="Arial, sans-serif" font-size="18" font-weight="800" letter-spacing="4">MARINA</text>
  <text x="52" y="615" fill="#fff7e8" font-family="Georgia, serif" font-size="26">Fort Mason Piers</text>
</svg>