<svg xmlns="http://www.w3.org/2000/svg" width="900" height="650" viewBox="0 0 900 650">
  <rect width="900" height="650" fill="#dce7ce"/>
  <circle cx="486" cy="145" r="86" fill="#5f7cff"/>
  <path d="M0 276 Q180 166 340 296 T900 241 V650 H0Z" fill="#15251b" opacity=".13"/>
  <rect x="70" y="378" width="45" height="182" rx="4" fill="#5f7cff" opacity=".72"/><rect x="157" y="262" width="62" height="298" rx="4" fill="#15251b" opacity=".86"/><rect x="278" y="396" width="79" height="164" rx="4" fill="#5f7cff" opacity=".72"/><rect x="365" y="280" width="45" height="280" rx="4" fill="#15251b" opacity=".86"/><rect x="452" y="414" width="62" height="146" rx="4" fill="#5f7cff" opacity=".72"/><rect x="539" y="298" width="79" height="262" rx="4" fill="#15251b" opacity=".86"/><rect x="660" y="432" width="45" height="128" rx="4" fill="#5f7cff" opacity=".72"/><rect x="747" y="316" width="62" height="244" rx="4" fill="#15251b" opacity=".86"/><rect x="834" y="200" width="79" height="360" rx="4" fill="#5f7cff" opacity=".72"/>
  <path d="M0 548 Q190 470 390 550 T900 515 V650 H0Z" fill="#15251b"/>
  <path d="M0 575 Q220 510 420 590 T900 548" fill="none" stroke="#5f7cff" stroke-width="12"/>
  <text x="52" y="72" fill="#15251b" font-family="Arial, sans-serif" font-size="18" font-weight="800" letter-spacing="4">INNER SUNSET</text>
  <text x="52" y="615" fill="#dce7ce" font-family="Georgia, serif" font-size="26">Grandview Park East Slope</text>
</svg>